<svg id="SvgjsSvg1006" width="368" height="400" xmlns="http://www.w3.org/2000/svg" version="1.1" xmlns:xlink="http://www.w3.org/1999/xlink" xmlns:svgjs="http://svgjs.com/svgjs"><defs id="SvgjsDefs1007"></defs><g id="SvgjsG1008" transform="translate(54,103)"><path id="SvgjsPath1009" d="M 127.5 0L 0 93.21000000000001L 45.9 239L 209.1 239L 255 93.21000000000001Z" stroke="rgba(50,50,50,1)" stroke-width="2" fill="none"></path><g id="SvgjsG1010"><text id="SvgjsText1011" font-family="微软雅黑" text-anchor="middle" font-size="13px" width="235px" fill="#323232" font-weight="400" align="middle" lineHeight="125%" anchor="middle" family="微软雅黑" size="13px" weight="400" font-style="" opacity="1" y="126.30000000000001" transform="rotate(0)"></text></g></g><g id="SvgjsG1012" transform="translate(148,66)"><path id="SvgjsPath1013" d="M 0 35C 0 -11.666666666666666 70 -11.666666666666666 70 35C 70 81.66666666666667 0 81.66666666666667 0 35Z" stroke="rgba(50,50,50,1)" stroke-width="2" fill="none"></path><g id="SvgjsG1014"><text id="SvgjsText1015" font-family="微软雅黑" text-anchor="middle" font-size="13px" width="50px" fill="#323232" font-weight="400" align="middle" lineHeight="125%" anchor="middle" family="微软雅黑" size="13px" weight="400" font-style="" opacity="1" y="23.875" transform="rotate(0)"></text></g></g><g id="SvgjsG1016" transform="translate(273,164)"><path id="SvgjsPath1017" d="M 0 35C 0 -11.666666666666666 70 -11.666666666666666 70 35C 70 81.66666666666667 0 81.66666666666667 0 35Z" stroke="rgba(50,50,50,1)" stroke-width="2" fill="none"></path><g id="SvgjsG1018"><text id="SvgjsText1019" font-family="微软雅黑" text-anchor="middle" font-size="13px" width="50px" fill="#323232" font-weight="400" align="middle" lineHeight="125%" anchor="middle" family="微软雅黑" size="13px" weight="400" font-style="" opacity="1" y="23.875" transform="rotate(0)"></text></g></g><g id="SvgjsG1020" transform="translate(25,160)"><path id="SvgjsPath1021" d="M 0 35C 0 -11.666666666666666 70 -11.666666666666666 70 35C 70 81.66666666666667 0 81.66666666666667 0 35Z" stroke="rgba(50,50,50,1)" stroke-width="2" fill="none"></path><g id="SvgjsG1022"><text id="SvgjsText1023" font-family="微软雅黑" text-anchor="middle" font-size="13px" width="50px" fill="#323232" font-weight="400" align="middle" lineHeight="125%" anchor="middle" family="微软雅黑" size="13px" weight="400" font-style="" opacity="1" y="23.875" transform="rotate(0)"></text></g></g><g id="SvgjsG1024" transform="translate(65,299)"><path id="SvgjsPath1025" d="M 0 35C 0 -11.666666666666666 70 -11.666666666666666 70 35C 70 81.66666666666667 0 81.66666666666667 0 35Z" stroke="rgba(50,50,50,1)" stroke-width="2" fill="none"></path><g id="SvgjsG1026"><text id="SvgjsText1027" font-family="微软雅黑" text-anchor="middle" font-size="13px" width="50px" fill="#323232" font-weight="400" align="middle" lineHeight="125%" anchor="middle" family="微软雅黑" size="13px" weight="400" font-style="" opacity="1" y="23.875" transform="rotate(0)"></text></g></g><g id="SvgjsG1028" transform="translate(230,305)"><path id="SvgjsPath1029" d="M 0 35C 0 -11.666666666666666 70 -11.666666666666666 70 35C 70 81.66666666666667 0 81.66666666666667 0 35Z" stroke="rgba(50,50,50,1)" stroke-width="2" fill="none"></path><g id="SvgjsG1030"><text id="SvgjsText1031" font-family="微软雅黑" text-anchor="middle" font-size="13px" width="50px" fill="#323232" font-weight="400" align="middle" lineHeight="125%" anchor="middle" family="微软雅黑" size="13px" weight="400" font-style="" opacity="1" y="23.875" transform="rotate(0)"></text></g></g><g id="SvgjsG1032" transform="translate(173,214)"><path id="SvgjsPath1033" d="M 0 10C 0 -3.3333333333333335 20 -3.3333333333333335 20 10C 20 23.333333333333332 0 23.333333333333332 0 10Z" stroke-dasharray="10,6" stroke="rgba(50,50,50,1)" stroke-width="2" fill-opacity="1" fill="#000000"></path><g id="SvgjsG1034"><text id="SvgjsText1035" font-family="微软雅黑" text-anchor="middle" font-size="13px" width="0px" fill="#323232" font-weight="400" align="middle" lineHeight="125%" anchor="middle" family="微软雅黑" size="13px" weight="400" font-style="" opacity="1" y="-1.125" transform="rotate(0)"></text></g></g><g id="SvgjsG1036" transform="translate(173,95)"><path id="SvgjsPath1037" d="M 0 10C 0 -3.3333333333333335 20 -3.3333333333333335 20 10C 20 23.333333333333332 0 23.333333333333332 0 10Z" stroke="rgba(50,50,50,1)" stroke-width="2" fill-opacity="1" fill="#000000"></path><g id="SvgjsG1038"><text id="SvgjsText1039" font-family="微软雅黑" text-anchor="middle" font-size="13px" width="0px" fill="#323232" font-weight="400" align="middle" lineHeight="125%" anchor="middle" family="微软雅黑" size="13px" weight="400" font-style="" opacity="1" y="-1.125" transform="rotate(0)"></text></g></g><g id="SvgjsG1040"><path id="SvgjsPath1041" d="M183 213L183 164.5L183 164.5L183 116" stroke-dasharray="8,5" stroke="#323232" stroke-width="2" fill="none"></path></g><g id="SvgjsG1042" transform="translate(296,190)"><path id="SvgjsPath1043" d="M 0 10C 0 -3.3333333333333335 20 -3.3333333333333335 20 10C 20 23.333333333333332 0 23.333333333333332 0 10Z" stroke="rgba(50,50,50,1)" stroke-width="2" fill-opacity="1" fill="#000000"></path><g id="SvgjsG1044"><text id="SvgjsText1045" font-family="微软雅黑" text-anchor="middle" font-size="13px" width="0px" fill="#323232" font-weight="400" align="middle" lineHeight="125%" anchor="middle" family="微软雅黑" size="13px" weight="400" font-style="" opacity="1" y="-1.125" transform="rotate(0)"></text></g></g><g id="SvgjsG1046"><path id="SvgjsPath1047" d="M193.9739109089901 223.7730693027596L295.0260890910099 200.2269306972404" stroke-dasharray="8,5" stroke="#323232" stroke-width="2" fill="none"></path></g><g id="SvgjsG1048" transform="translate(253,329)"><path id="SvgjsPath1049" d="M 0 10C 0 -3.3333333333333335 20 -3.3333333333333335 20 10C 20 23.333333333333332 0 23.333333333333332 0 10Z" stroke="rgba(50,50,50,1)" stroke-width="2" fill-opacity="1" fill="#000000"></path><g id="SvgjsG1050"><text id="SvgjsText1051" font-family="微软雅黑" text-anchor="middle" font-size="13px" width="0px" fill="#323232" font-weight="400" align="middle" lineHeight="125%" anchor="middle" family="微软雅黑" size="13px" weight="400" font-style="" opacity="1" y="-1.125" transform="rotate(0)"></text></g></g><g id="SvgjsG1052" transform="translate(90,330)"><path id="SvgjsPath1053" d="M 0 10C 0 -3.3333333333333335 20 -3.3333333333333335 20 10C 20 23.333333333333332 0 23.333333333333332 0 10Z" stroke="rgba(50,50,50,1)" stroke-width="2" fill-opacity="1" fill="#000000"></path><g id="SvgjsG1054"><text id="SvgjsText1055" font-family="微软雅黑" text-anchor="middle" font-size="13px" width="0px" fill="#323232" font-weight="400" align="middle" lineHeight="125%" anchor="middle" family="微软雅黑" size="13px" weight="400" font-style="" opacity="1" y="-1.125" transform="rotate(0)"></text></g></g><g id="SvgjsG1056" transform="translate(45,189)"><path id="SvgjsPath1057" d="M 0 10C 0 -3.3333333333333335 20 -3.3333333333333335 20 10C 20 23.333333333333332 0 23.333333333333332 0 10Z" stroke="rgba(50,50,50,1)" stroke-width="2" fill-opacity="1" fill="#000000"></path><g id="SvgjsG1058"><text id="SvgjsText1059" font-family="微软雅黑" text-anchor="middle" font-size="13px" width="0px" fill="#323232" font-weight="400" align="middle" lineHeight="125%" anchor="middle" family="微软雅黑" size="13px" weight="400" font-style="" opacity="1" y="-1.125" transform="rotate(0)"></text></g></g><g id="SvgjsG1060"><path id="SvgjsPath1061" d="M172.02576106181994 223.7744817272731L65.97423893818006 199.2255182727269" stroke-dasharray="8,5" stroke="#323232" stroke-width="2" fill="none"></path></g><g id="SvgjsG1062"><path id="SvgjsPath1063" d="M182.34596991240494 234.75646853504975L100.65403008759506 329.24353146495025" stroke-dasharray="8,5" stroke="#323232" stroke-width="2" fill="none"></path></g><g id="SvgjsG1064"><path id="SvgjsPath1065" d="M183.64413574578282 234.76491119811703L262.3558642542172 328.23508880188297" stroke-dasharray="8,5" stroke="#323232" stroke-width="2" fill="none"></path></g><g id="SvgjsG1066"><path id="SvgjsPath1067" d="M182 199C 203 192 211 200 208 219" stroke-dasharray="8,5" stroke="#323232" stroke-width="2" fill="none"></path></g><g id="SvgjsG1068" transform="translate(181,160)"><path id="SvgjsPath1069" d="M 0 0L 68 0L 68 50L 0 50Z" stroke="none" fill="none"></path><g id="SvgjsG1070"><text id="SvgjsText1071" font-family="微软雅黑" text-anchor="middle" font-size="33px" width="68px" fill="#323232" font-weight="700" align="middle" lineHeight="125%" anchor="middle" family="微软雅黑" size="33px" weight="700" font-style="" opacity="1" y="-4.125" transform="rotate(0)"><tspan id="SvgjsTspan1072" dy="41" x="34"><tspan id="SvgjsTspan1073" style="text-decoration:;">θ</tspan></tspan></text></g></g><g id="SvgjsG1074" transform="translate(125,139)"><path id="SvgjsPath1075" d="M 0 0L 68 0L 68 50L 0 50Z" stroke="none" fill="none"></path><g id="SvgjsG1076"><text id="SvgjsText1077" font-family="微软雅黑" text-anchor="middle" font-size="33px" width="68px" fill="#323232" font-weight="700" align="middle" lineHeight="125%" anchor="middle" family="微软雅黑" size="33px" weight="700" font-style="" opacity="1" y="-4.125" transform="rotate(0)"><tspan id="SvgjsTspan1078" dy="41" x="34"><tspan id="SvgjsTspan1079" style="text-decoration:;">d</tspan></tspan></text></g></g><g id="SvgjsG1080"><path id="SvgjsPath1081" d="M193.98744063191668 104.84200949889333L217.01255936808332 101.15799050110667" stroke-dasharray="8,5" stroke="#323232" stroke-width="2" fill="none"></path></g><g id="SvgjsG1082" transform="translate(173,25)"><path id="SvgjsPath1083" d="M 0 0L 68 0L 68 50L 0 50Z" stroke="none" fill="none"></path><g id="SvgjsG1084"><text id="SvgjsText1085" font-family="微软雅黑" text-anchor="middle" font-size="33px" width="68px" fill="#323232" font-weight="700" align="middle" lineHeight="125%" anchor="middle" family="微软雅黑" size="33px" weight="700" font-style="" opacity="1" y="-4.125" transform="rotate(0)"><tspan id="SvgjsTspan1086" dy="41" x="34"><tspan id="SvgjsTspan1087" style="text-decoration:;">r</tspan></tspan></text></g></g></svg>