<svg id="SvgjsSvg1006" width="1122" height="521" xmlns="http://www.w3.org/2000/svg" version="1.1" xmlns:xlink="http://www.w3.org/1999/xlink" xmlns:svgjs="http://svgjs.com/svgjs"><defs id="SvgjsDefs1007"><marker id="SvgjsMarker1010" markerWidth="14" markerHeight="10" refX="10" refY="5" viewBox="0 0 14 10" orient="auto" markerUnits="userSpaceOnUse" stroke-dasharray="0,0"><path id="SvgjsPath1011" d="M0,0 L14,5 L0,10 L0,0" fill="#323232" stroke="#323232" stroke-width="1"></path></marker><marker id="SvgjsMarker1014" markerWidth="14" markerHeight="10" refX="10" refY="5" viewBox="0 0 14 10" orient="auto" markerUnits="userSpaceOnUse" stroke-dasharray="0,0"><path id="SvgjsPath1015" d="M0,0 L14,5 L0,10 L0,0" fill="#323232" stroke="#323232" stroke-width="1"></path></marker><marker id="SvgjsMarker1022" markerWidth="16" markerHeight="16" refX="3" refY="8" viewBox="0 0 16 16" orient="auto" markerUnits="userSpaceOnUse" stroke-dasharray="0,0"><circle id="SvgjsCircle1023" r="4" cx="8" cy="8" fill="#323232" stroke="#323232" stroke-width="2"></circle></marker><marker id="SvgjsMarker1024" markerWidth="16" markerHeight="16" refX="13" refY="8" viewBox="0 0 16 16" orient="auto" markerUnits="userSpaceOnUse" stroke-dasharray="0,0"><circle id="SvgjsCircle1025" r="4" cx="8" cy="8" fill="#323232" stroke="#323232" stroke-width="2"></circle></marker><marker id="SvgjsMarker1052" markerWidth="16" markerHeight="16" refX="13" refY="8" viewBox="0 0 16 16" orient="auto" markerUnits="userSpaceOnUse" stroke-dasharray="0,0"><circle id="SvgjsCircle1053" r="4" cx="8" cy="8" fill="#323232" stroke="#323232" stroke-width="2"></circle></marker><marker id="SvgjsMarker1080" markerWidth="14" markerHeight="10" refX="10" refY="5" viewBox="0 0 14 10" orient="auto" markerUnits="userSpaceOnUse" stroke-dasharray="0,0"><path id="SvgjsPath1081" d="M0,0 L14,5 L0,10 L0,0" fill="#323232" stroke="#323232" stroke-width="1"></path></marker><marker id="SvgjsMarker1084" markerWidth="14" markerHeight="10" refX="10" refY="5" viewBox="0 0 14 10" orient="auto" markerUnits="userSpaceOnUse" stroke-dasharray="0,0"><path id="SvgjsPath1085" d="M0,0 L14,5 L0,10 L0,0" fill="#323232" stroke="#323232" stroke-width="1"></path></marker><marker id="SvgjsMarker1104" markerWidth="16" markerHeight="16" refX="13" refY="8" viewBox="0 0 16 16" orient="auto" markerUnits="userSpaceOnUse" stroke-dasharray="0,0"><circle id="SvgjsCircle1105" r="4" cx="8" cy="8" fill="#323232" stroke="#323232" stroke-width="2"></circle></marker><marker id="SvgjsMarker1128" markerWidth="16" markerHeight="16" refX="13" refY="8" viewBox="0 0 16 16" orient="auto" markerUnits="userSpaceOnUse" stroke-dasharray="0,0"><circle id="SvgjsCircle1129" r="4" cx="8" cy="8" fill="#323232" stroke="#323232" stroke-width="2"></circle></marker></defs><g id="SvgjsG1008"><path id="SvgjsPath1009" d="M76 450L315.5 450L315.5 450L555 450" stroke="#323232" stroke-width="2" fill="none" marker-end="url(#SvgjsMarker1010)"></path></g><g id="SvgjsG1012"><path id="SvgjsPath1013" d="M75 435L75 230.5L75 230.5L75 25" stroke="#323232" stroke-width="2" fill="none" marker-end="url(#SvgjsMarker1014)"></path></g><g id="SvgjsG1016" transform="translate(66,436)"><path id="SvgjsPath1017" d="M 0 10C 0 -3.3333333333333335 20 -3.3333333333333335 20 10C 20 23.333333333333332 0 23.333333333333332 0 10Z" stroke="rgba(50,50,50,1)" stroke-width="2" fill-opacity="1" fill="#000000"></path><g id="SvgjsG1018"><text id="SvgjsText1019" font-family="微软雅黑" text-anchor="middle" font-size="13px" width="0px" fill="#323232" font-weight="400" align="middle" lineHeight="125%" anchor="middle" family="微软雅黑" size="13px" weight="400" font-style="" opacity="1" y="-1.125" transform="rotate(0)"></text></g></g><g id="SvgjsG1020"><path id="SvgjsPath1021" d="M228 196L397 90" stroke="#323232" stroke-width="2" fill="none" marker-start="url(#SvgjsMarker1022)" marker-end="url(#SvgjsMarker1024)"></path></g><g id="SvgjsG1026" transform="translate(190,149)"><path id="SvgjsPath1027" d="M 0 0L 41 0L 41 36L 0 36Z" stroke="none" fill="none"></path><g id="SvgjsG1028"><text id="SvgjsText1029" font-family="微软雅黑" text-anchor="middle" font-size="22px" width="41px" fill="#323232" font-weight="700" align="middle" lineHeight="125%" anchor="middle" family="微软雅黑" size="22px" weight="700" font-style="" opacity="1" y="-1.75" transform="rotate(0)"><tspan id="SvgjsTspan1030" dy="27" x="20.5"><tspan id="SvgjsTspan1031" style="text-decoration:;">A</tspan></tspan></text></g></g><g id="SvgjsG1032" transform="translate(370,50)"><path id="SvgjsPath1033" d="M 0 0L 41 0L 41 36L 0 36Z" stroke="none" fill="none"></path><g id="SvgjsG1034"><text id="SvgjsText1035" font-family="微软雅黑" text-anchor="middle" font-size="22px" width="41px" fill="#323232" font-weight="700" align="middle" lineHeight="125%" anchor="middle" family="微软雅黑" size="22px" weight="700" font-style="" opacity="1" y="-1.75" transform="rotate(0)"><tspan id="SvgjsTspan1036" dy="27" x="20.5"><tspan id="SvgjsTspan1037" style="text-decoration:;">B</tspan></tspan></text></g></g><g id="SvgjsG1038" transform="translate(514,460)"><path id="SvgjsPath1039" d="M 0 0L 41 0L 41 36L 0 36Z" stroke="none" fill="none"></path><g id="SvgjsG1040"><text id="SvgjsText1041" font-family="微软雅黑" text-anchor="middle" font-size="22px" width="41px" fill="#323232" font-weight="700" align="middle" lineHeight="125%" anchor="middle" family="微软雅黑" size="22px" weight="700" font-style="" opacity="1" y="-1.75" transform="rotate(0)"><tspan id="SvgjsTspan1042" dy="27" x="20.5"><tspan id="SvgjsTspan1043" style="text-decoration:;">X</tspan></tspan></text></g></g><g id="SvgjsG1044" transform="translate(25,25)"><path id="SvgjsPath1045" d="M 0 0L 41 0L 41 36L 0 36Z" stroke="none" fill="none"></path><g id="SvgjsG1046"><text id="SvgjsText1047" font-family="微软雅黑" text-anchor="middle" font-size="22px" width="41px" fill="#323232" font-weight="700" align="middle" lineHeight="125%" anchor="middle" family="微软雅黑" size="22px" weight="700" font-style="" opacity="1" y="-1.75" transform="rotate(0)"><tspan id="SvgjsTspan1048" dy="27" x="20.5"><tspan id="SvgjsTspan1049" style="text-decoration:;">Y</tspan></tspan></text></g></g><g id="SvgjsG1050"><path id="SvgjsPath1051" d="M84.18872982217044 439.48975061505195L254 324" stroke="#323232" stroke-width="2" fill="none" marker-end="url(#SvgjsMarker1052)"></path></g><g id="SvgjsG1054"><path id="SvgjsPath1055" d="M76.53464171260447 435.1549211639478L231 191" stroke-dasharray="8,5" stroke="#323232" stroke-width="2" fill="none"></path></g><g id="SvgjsG1056"><path id="SvgjsPath1057" d="M252 324L394 95" stroke-dasharray="8,5" stroke="#323232" stroke-width="2" fill="none"></path></g><g id="SvgjsG1058" transform="translate(259,305)"><path id="SvgjsPath1059" d="M 0 0L 41 0L 41 36L 0 36Z" stroke="none" fill="none"></path><g id="SvgjsG1060"><text id="SvgjsText1061" font-family="微软雅黑" text-anchor="middle" font-size="22px" width="41px" fill="#323232" font-weight="700" align="middle" lineHeight="125%" anchor="middle" family="微软雅黑" size="22px" weight="700" font-style="" opacity="1" y="-1.75" transform="rotate(0)"><tspan id="SvgjsTspan1062" dy="27" x="20.5"><tspan id="SvgjsTspan1063" style="text-decoration:;">B'</tspan></tspan></text></g></g><g id="SvgjsG1064"><path id="SvgjsPath1065" d="M126 451C 142 441 136 418 118 419" stroke-dasharray="8,5" stroke="#323232" stroke-width="2" fill="none"></path></g><g id="SvgjsG1066" transform="translate(141,408)"><path id="SvgjsPath1067" d="M 0 0L 41 0L 41 36L 0 36Z" stroke="none" fill="none"></path><g id="SvgjsG1068"><text id="SvgjsText1069" font-family="微软雅黑" text-anchor="middle" font-size="22px" width="41px" fill="#323232" font-weight="700" align="middle" lineHeight="125%" anchor="middle" family="微软雅黑" size="22px" weight="700" font-style="" opacity="1" y="-1.75" transform="rotate(0)"><tspan id="SvgjsTspan1070" dy="27" x="20.5"><tspan id="SvgjsTspan1071" style="text-decoration:;">θ</tspan></tspan></text></g></g><g id="SvgjsG1072" transform="translate(179,354)"><path id="SvgjsPath1073" d="M 0 0L 52 0L 52 41L 0 41Z" stroke="none" fill="none"></path><g id="SvgjsG1074"><text id="SvgjsText1075" font-family="微软雅黑" text-anchor="middle" font-size="22px" width="52px" fill="#323232" font-weight="700" align="middle" lineHeight="125%" anchor="middle" family="微软雅黑" size="22px" weight="700" font-style="" opacity="1" y="0.75" transform="rotate(0)"><tspan id="SvgjsTspan1076" dy="27" x="26"><tspan id="SvgjsTspan1077" style="text-decoration:;">ρ</tspan></tspan></text></g></g><g id="SvgjsG1078"><path id="SvgjsPath1079" d="M618 450L857.5 450L857.5 450L1097 450" stroke="#323232" stroke-width="2" fill="none" marker-end="url(#SvgjsMarker1080)"></path></g><g id="SvgjsG1082"><path id="SvgjsPath1083" d="M617 435L617 230.5L617 230.5L617 25" stroke="#323232" stroke-width="2" fill="none" marker-end="url(#SvgjsMarker1084)"></path></g><g id="SvgjsG1086" transform="translate(608,436)"><path id="SvgjsPath1087" d="M 0 10C 0 -3.3333333333333335 20 -3.3333333333333335 20 10C 20 23.333333333333332 0 23.333333333333332 0 10Z" stroke="rgba(50,50,50,1)" stroke-width="2" fill-opacity="1" fill="#000000"></path><g id="SvgjsG1088"><text id="SvgjsText1089" font-family="微软雅黑" text-anchor="middle" font-size="13px" width="0px" fill="#323232" font-weight="400" align="middle" lineHeight="125%" anchor="middle" family="微软雅黑" size="13px" weight="400" font-style="" opacity="1" y="-1.125" transform="rotate(0)"></text></g></g><g id="SvgjsG1090" transform="translate(1056,460)"><path id="SvgjsPath1091" d="M 0 0L 41 0L 41 36L 0 36Z" stroke="none" fill="none"></path><g id="SvgjsG1092"><text id="SvgjsText1093" font-family="微软雅黑" text-anchor="middle" font-size="22px" width="41px" fill="#323232" font-weight="700" align="middle" lineHeight="125%" anchor="middle" family="微软雅黑" size="22px" weight="700" font-style="" opacity="1" y="-1.75" transform="rotate(0)"><tspan id="SvgjsTspan1094" dy="27" x="20.5"><tspan id="SvgjsTspan1095" style="text-decoration:;">X</tspan></tspan></text></g></g><g id="SvgjsG1096" transform="translate(567,25)"><path id="SvgjsPath1097" d="M 0 0L 41 0L 41 36L 0 36Z" stroke="none" fill="none"></path><g id="SvgjsG1098"><text id="SvgjsText1099" font-family="微软雅黑" text-anchor="middle" font-size="22px" width="41px" fill="#323232" font-weight="700" align="middle" lineHeight="125%" anchor="middle" family="微软雅黑" size="22px" weight="700" font-style="" opacity="1" y="-1.75" transform="rotate(0)"><tspan id="SvgjsTspan1100" dy="27" x="20.5"><tspan id="SvgjsTspan1101" style="text-decoration:;">Y</tspan></tspan></text></g></g><g id="SvgjsG1102"><path id="SvgjsPath1103" d="M626.1887298221704 439.48975061505195L796 324" stroke-dasharray="8,5" stroke="#323232" stroke-width="2" fill="none" marker-end="url(#SvgjsMarker1104)"></path></g><g id="SvgjsG1106" transform="translate(801,305)"><path id="SvgjsPath1107" d="M 0 0L 41 0L 41 36L 0 36Z" stroke="none" fill="none"></path><g id="SvgjsG1108"><text id="SvgjsText1109" font-family="微软雅黑" text-anchor="middle" font-size="22px" width="41px" fill="#323232" font-weight="700" align="middle" lineHeight="125%" anchor="middle" family="微软雅黑" size="22px" weight="700" font-style="" opacity="1" y="-1.75" transform="rotate(0)"><tspan id="SvgjsTspan1110" dy="27" x="20.5"><tspan id="SvgjsTspan1111" style="text-decoration:;">B'</tspan></tspan></text></g></g><g id="SvgjsG1112"><path id="SvgjsPath1113" d="M668 451C 684 441 678 418 660 419" stroke-dasharray="8,5" stroke="#323232" stroke-width="2" fill="none"></path></g><g id="SvgjsG1114" transform="translate(683,408)"><path id="SvgjsPath1115" d="M 0 0L 41 0L 41 36L 0 36Z" stroke="none" fill="none"></path><g id="SvgjsG1116"><text id="SvgjsText1117" font-family="微软雅黑" text-anchor="middle" font-size="22px" width="41px" fill="#323232" font-weight="700" align="middle" lineHeight="125%" anchor="middle" family="微软雅黑" size="22px" weight="700" font-style="" opacity="1" y="-1.75" transform="rotate(0)"><tspan id="SvgjsTspan1118" dy="27" x="20.5"><tspan id="SvgjsTspan1119" style="text-decoration:;">θ</tspan></tspan></text></g></g><g id="SvgjsG1120" transform="translate(644,313)"><path id="SvgjsPath1121" d="M 0 0L 52 0L 52 41L 0 41Z" stroke="none" fill="none"></path><g id="SvgjsG1122"><text id="SvgjsText1123" font-family="微软雅黑" text-anchor="middle" font-size="22px" width="52px" fill="#323232" font-weight="700" align="middle" lineHeight="125%" anchor="middle" family="微软雅黑" size="22px" weight="700" font-style="" opacity="1" y="0.75" transform="rotate(0)"><tspan id="SvgjsTspan1124" dy="27" x="26"><tspan id="SvgjsTspan1125" style="text-decoration:;">ρ</tspan></tspan></text></g></g><g id="SvgjsG1126"><path id="SvgjsPath1127" d="M622.6548121567181 436.1531875774056L748 271" stroke="#323232" stroke-width="2" fill="none" marker-end="url(#SvgjsMarker1128)"></path></g><g id="SvgjsG1130" transform="translate(735,229)"><path id="SvgjsPath1131" d="M 0 0L 41 0L 41 36L 0 36Z" stroke="none" fill="none"></path><g id="SvgjsG1132"><text id="SvgjsText1133" font-family="微软雅黑" text-anchor="middle" font-size="22px" width="41px" fill="#323232" font-weight="700" align="middle" lineHeight="125%" anchor="middle" family="微软雅黑" size="22px" weight="700" font-style="" opacity="1" y="-1.75" transform="rotate(0)"><tspan id="SvgjsTspan1134" dy="27" x="20.5"><tspan id="SvgjsTspan1135" style="text-decoration:;">C</tspan></tspan></text></g></g><g id="SvgjsG1136"><path id="SvgjsPath1137" d="M687 399C 703 389 697 366 679 367" stroke-dasharray="8,5" stroke="#323232" stroke-width="2" fill="none"></path></g><g id="SvgjsG1138" transform="translate(683,345)"><path id="SvgjsPath1139" d="M 0 0L 41 0L 41 36L 0 36Z" stroke="none" fill="none"></path><g id="SvgjsG1140"><text id="SvgjsText1141" font-family="微软雅黑" text-anchor="middle" font-size="22px" width="41px" fill="#323232" font-weight="700" align="middle" lineHeight="125%" anchor="middle" family="微软雅黑" size="22px" weight="700" font-style="" opacity="1" y="-1.75" transform="rotate(0)"><tspan id="SvgjsTspan1142" dy="27" x="20.5"><tspan id="SvgjsTspan1143" style="text-decoration:;">θ'</tspan></tspan></text></g></g></svg>