<svg id="SvgjsSvg1006" width="579" height="391" xmlns="http://www.w3.org/2000/svg" version="1.1" xmlns:xlink="http://www.w3.org/1999/xlink" xmlns:svgjs="http://svgjs.com/svgjs"><defs id="SvgjsDefs1007"><marker id="SvgjsMarker1028" markerWidth="14" markerHeight="10" refX="10" refY="5" viewBox="0 0 14 10" orient="auto" markerUnits="userSpaceOnUse" stroke-dasharray="0,0"><path id="SvgjsPath1029" d="M0,0 L14,5 L0,10 L0,0" fill="#323232" stroke="#323232" stroke-width="1"></path></marker><marker id="SvgjsMarker1036" markerWidth="14" markerHeight="10" refX="10" refY="5" viewBox="0 0 14 10" orient="auto" markerUnits="userSpaceOnUse" stroke-dasharray="0,0"><path id="SvgjsPath1037" d="M0,0 L14,5 L0,10 L0,0" fill="#323232" stroke="#323232" stroke-width="1"></path></marker><marker id="SvgjsMarker1050" markerWidth="14" markerHeight="10" refX="10" refY="5" viewBox="0 0 14 10" orient="auto" markerUnits="userSpaceOnUse" stroke-dasharray="0,0"><path id="SvgjsPath1051" d="M0,0 L14,5 L0,10 L0,0" fill="#323232" stroke="#323232" stroke-width="1"></path></marker><marker id="SvgjsMarker1058" markerWidth="14" markerHeight="10" refX="10" refY="5" viewBox="0 0 14 10" orient="auto" markerUnits="userSpaceOnUse" stroke-dasharray="0,0"><path id="SvgjsPath1059" d="M0,0 L14,5 L0,10 L0,0" fill="#f44336" stroke="#f44336" stroke-width="1"></path></marker><marker id="SvgjsMarker1066" markerWidth="14" markerHeight="10" refX="10" refY="5" viewBox="0 0 14 10" orient="auto" markerUnits="userSpaceOnUse" stroke-dasharray="0,0"><path id="SvgjsPath1067" d="M0,0 L14,5 L0,10 L0,0" fill="#f44336" stroke="#f44336" stroke-width="1"></path></marker><marker id="SvgjsMarker1074" markerWidth="14" markerHeight="10" refX="4" refY="5" viewBox="0 0 14 10" orient="auto" markerUnits="userSpaceOnUse" stroke-dasharray="0,0"><path id="SvgjsPath1075" d="M14,0 L0,5 L14,10 L14,0" fill="#323232" stroke="#323232" stroke-width="1"></path></marker></defs><g id="SvgjsG1008" transform="translate(177,296)"><path id="SvgjsPath1009" d="M 0 0L 100 0L 100 70L 0 70Z" stroke="rgba(50,50,50,1)" stroke-width="2" fill-opacity="1" fill="#ffffff"></path><g id="SvgjsG1010"><text id="SvgjsText1011" font-family="微软雅黑" text-anchor="middle" font-size="15px" width="80px" fill="#323232" font-weight="700" align="middle" lineHeight="125%" anchor="middle" family="微软雅黑" size="15px" weight="700" font-style="" opacity="1" y="22.625" transform="rotate(0)"><tspan id="SvgjsTspan1012" dy="18" x="50"><tspan id="SvgjsTspan1013" style="text-decoration:;">maskLayer</tspan></tspan></text></g></g><g id="SvgjsG1014" transform="translate(161.5,150)"><path id="SvgjsPath1015" d="M 0 0L 131 0L 131 62L 0 62Z" stroke="rgba(50,50,50,1)" stroke-width="2" fill-opacity="1" fill="#ffffff"></path><g id="SvgjsG1016"><text id="SvgjsText1017" font-family="微软雅黑" text-anchor="middle" font-size="15px" width="111px" fill="#323232" font-weight="700" align="middle" lineHeight="125%" anchor="middle" family="微软雅黑" size="15px" weight="700" font-style="" opacity="1" y="18.625" transform="rotate(0)"><tspan id="SvgjsTspan1018" dy="18" x="65.5"><tspan id="SvgjsTspan1019" style="text-decoration:;">roundCellView</tspan></tspan></text></g></g><g id="SvgjsG1020" transform="translate(161.5,25)"><path id="SvgjsPath1021" d="M 0 0L 131 0L 131 62L 0 62Z" stroke="rgba(50,50,50,1)" stroke-width="2" fill-opacity="1" fill="#ffffff"></path><g id="SvgjsG1022"><text id="SvgjsText1023" font-family="微软雅黑" text-anchor="middle" font-size="15px" width="111px" fill="#323232" font-weight="700" align="middle" lineHeight="125%" anchor="middle" family="微软雅黑" size="15px" weight="700" font-style="" opacity="1" y="18.625" transform="rotate(0)"><tspan id="SvgjsTspan1024" dy="18" x="65.5"><tspan id="SvgjsTspan1025" style="text-decoration:;">flowerView</tspan></tspan></text></g></g><g id="SvgjsG1026"><path id="SvgjsPath1027" d="M227 88L227 118.5L227 118.5L227 146.4" stroke="#323232" stroke-width="2" fill="none" marker-end="url(#SvgjsMarker1028)"></path><rect id="SvgjsRect1030" width="60" height="16" x="197" y="109.2" fill="#ffffff"></rect><text id="SvgjsText1031" font-family="微软雅黑" text-anchor="middle" font-size="13px" width="60px" fill="#323232" font-weight="400" align="top" lineHeight="16px" anchor="middle" family="微软雅黑" size="13px" weight="400" font-style="" opacity="1" y="106.575" transform="rotate(0)"><tspan id="SvgjsTspan1032" dy="16" x="227"><tspan id="SvgjsTspan1033" style="text-decoration:;">count变化</tspan></tspan></text></g><g id="SvgjsG1034"><path id="SvgjsPath1035" d="M227 213L227 254L227 254L227 292.4" stroke="#323232" stroke-width="2" fill="none" marker-end="url(#SvgjsMarker1036)"></path><rect id="SvgjsRect1038" width="130" height="16" x="162" y="244.7" fill="#ffffff"></rect><text id="SvgjsText1039" font-family="微软雅黑" text-anchor="middle" font-size="13px" width="130px" fill="#323232" font-weight="400" align="top" lineHeight="16px" anchor="middle" family="微软雅黑" size="13px" weight="400" font-style="" opacity="1" y="242.075" transform="rotate(0)"><tspan id="SvgjsTspan1040" dy="16" x="227"><tspan id="SvgjsTspan1041" style="text-decoration:;">set自定义key开始动画</tspan></tspan></text></g><g id="SvgjsG1042" transform="translate(455,304)"><path id="SvgjsPath1043" d="M 0 4Q 0 0 4 0L 83 0Q 87 0 87 4L 87 50Q 87 54 83 54L 4 54Q 0 54 0 50Z" stroke="rgba(50,50,50,1)" stroke-width="2" fill-opacity="1" fill="#ffffff"></path><g id="SvgjsG1044"><text id="SvgjsText1045" font-family="微软雅黑" text-anchor="middle" font-size="15px" width="67px" fill="#323232" font-weight="700" align="middle" lineHeight="125%" anchor="middle" family="微软雅黑" size="15px" weight="700" font-style="" opacity="1" y="14.625" transform="rotate(0)"><tspan id="SvgjsTspan1046" dy="18" x="43.5"><tspan id="SvgjsTspan1047" style="text-decoration:;">display</tspan></tspan></text></g></g><g id="SvgjsG1048"><path id="SvgjsPath1049" d="M278 331L366 331L366 331L451.4 331" stroke="#323232" stroke-width="2" fill="none" marker-end="url(#SvgjsMarker1050)"></path><rect id="SvgjsRect1052" width="78" height="16" x="325.7" y="323" fill="#ffffff"></rect><text id="SvgjsText1053" font-family="微软雅黑" text-anchor="middle" font-size="13px" width="78px" fill="#323232" font-weight="400" align="top" lineHeight="16px" anchor="middle" family="微软雅黑" size="13px" weight="400" font-style="" opacity="1" y="320.375" transform="rotate(0)"><tspan id="SvgjsTspan1054" dy="16" x="364.7"><tspan id="SvgjsTspan1055" style="text-decoration:;">动画期间调用</tspan></tspan></text></g><g id="SvgjsG1056"><path id="SvgjsPath1057" d="M498.5 303L498.5 181L296.1 181" stroke-dasharray="8,5" stroke="#f44336" stroke-width="2" fill="none" marker-end="url(#SvgjsMarker1058)"></path><rect id="SvgjsRect1060" width="118" height="16" x="399.3" y="173" fill="#ffffff"></rect><text id="SvgjsText1061" font-family="微软雅黑" text-anchor="middle" font-size="13px" width="118px" fill="#323232" font-weight="400" align="top" lineHeight="16px" anchor="middle" family="微软雅黑" size="13px" weight="400" font-style="" opacity="1" y="170.375" transform="rotate(0)"><tspan id="SvgjsTspan1062" dy="16" x="458.3"><tspan id="SvgjsTspan1063" style="text-decoration:;">通知父view位置移动</tspan></tspan></text></g><g id="SvgjsG1064"><path id="SvgjsPath1065" d="M160.5 181L73.5 181L73.5 331L173.39999999999998 331" stroke-dasharray="8,5" stroke="#f44336" stroke-width="2" fill="none" marker-end="url(#SvgjsMarker1066)"></path><rect id="SvgjsRect1068" width="117" height="16" x="15" y="254.45" fill="#ffffff"></rect><text id="SvgjsText1069" font-family="微软雅黑" text-anchor="middle" font-size="13px" width="117px" fill="#323232" font-weight="400" align="top" lineHeight="16px" anchor="middle" family="微软雅黑" size="13px" weight="400" font-style="" opacity="1" y="251.825" transform="rotate(0)"><tspan id="SvgjsTspan1070" dy="16" x="73.5"><tspan id="SvgjsTspan1071" style="text-decoration:;">重新设置maskLayer</tspan></tspan></text></g><g id="SvgjsG1072"><path id="SvgjsPath1073" d="M296.09612462566656 56.166996037899736C 377.9880108553241 56 400.20000000000005 125.6 472 172" stroke-dasharray="8,5" stroke="#323232" stroke-width="2" fill="none" marker-start="url(#SvgjsMarker1074)"></path></g><g id="SvgjsG1076" transform="translate(378,44)"><path id="SvgjsPath1077" d="M 0 0L 176 0L 176 36L 0 36Z" stroke="none" fill="none"></path><g id="SvgjsG1078"><text id="SvgjsText1079" font-family="微软雅黑" text-anchor="middle" font-size="13px" width="176px" fill="#323232" font-weight="400" align="middle" lineHeight="125%" anchor="middle" family="微软雅黑" size="13px" weight="400" font-style="" opacity="1" y="6.875" transform="rotate(0)"><tspan id="SvgjsTspan1080" dy="16" x="88"><tspan id="SvgjsTspan1081" style="text-decoration:;">位置计算需要依赖父类</tspan></tspan></text></g></g></svg>